# xmcd
#
# Track frame offsets:
#	150
#	12394
#	25640
#	40561
#	54722
#	69283
#	81340
#	93435
#	105947
#	119825
#	132745
#	144545
#	160036
#	172009
#
# Disc length: 2453 seconds
#
# Revision: 0
# Processed by: cddbd v1.5.2PL0 Copyright (c) Steve Scherf et al.
# Submitted via: EasyCDDAExtractor 2011.3.0.0
#
DISCID=b909930e
DTITLE=John Lee Hooker - High Octave Blues Series CD 1
DYEAR=2014
DGENRE=Blues
TTITLE0=High Priced Woman
TTITLE1=Reach My Goal (How Long Must I Be Your Slave)
TTITLE2=My Daddy Was a Disckjockey
TTITLE3=Catfish Blues
TTITLE4=Four Woman In My Life
TTITLE5=Ground Hog Blues
TTITLE6=How Can You Do It
TTITLE7=I Love to Boggie
TTITLE8=Lousie Lousie
TTITLE9=609 Boogie
TTITLE10=Little Boy Blue
TTITLE11=Landing Blues
TTITLE12=I´m In the Mood
TTITLE13=Mad Man Blues
EXTD=
EXTT0=
EXTT1=
EXTT2=
EXTT3=
EXTT4=
EXTT5=
EXTT6=
EXTT7=
EXTT8=
EXTT9=
EXTT10=
EXTT11=
EXTT12=
EXTT13=
PLAYORDER=
